<?xml version="1.0" encoding="utf-8"?>
<!-- Generator: Adobe Illustrator 22.1.0, SVG Export Plug-In . SVG Version: 6.00 Build 0)  -->
<svg version="1.1" id="Layer_1" xmlns="http://www.w3.org/2000/svg" xmlns:xlink="http://www.w3.org/1999/xlink" x="0px" y="0px"
	 viewBox="0 0 1000 683.7" style="enable-background:new 0 0 1000 683.7;" xml:space="preserve">
<style type="text/css">
	.st0{fill:#353B48;}
	.st1{fill:#4CD137;}
	.st2{fill:#818B98;}
</style>
<g>
	<path class="st0" d="M930.7,367.2V361v-9.2v-78.3v-6.2V200v-1.1h61.2v-37.3h-61.2v-3.3v-107V30.5V1l-37.4,29.4v20.8v107v109v6.2
		v78.3v6.2v3v6.2c0,67.5,32.9,97.6,106.7,97.6v-37.4C941,427.4,930.7,408,930.7,367.2z"/>
	<path class="st0" d="M668.5,303c-0.1-1.9-0.2-3.7-0.4-5.6c-0.1-0.8-0.2-1.6-0.3-2.5c-0.2-1.8-0.4-3.5-0.7-5.2
		c-0.1-0.8-0.3-1.6-0.4-2.4c-0.3-1.8-0.6-3.5-1-5.2c-0.1-0.7-0.3-1.4-0.5-2.1c-0.4-1.8-0.8-3.6-1.3-5.3c-0.2-0.6-0.4-1.2-0.5-1.9
		c-0.5-1.8-1-3.7-1.6-5.5c-0.2-0.5-0.4-1.1-0.5-1.6c-0.6-1.9-1.3-3.8-2-5.6c-0.2-0.4-0.3-0.9-0.5-1.3c-0.7-1.9-1.5-3.8-2.3-5.7
		c-0.2-0.3-0.3-0.7-0.5-1c-0.9-2-1.8-3.9-2.7-5.8c-0.1-0.3-0.3-0.5-0.4-0.8c-1-2-2-4-3.1-5.9c-0.1-0.2-0.2-0.4-0.3-0.6
		c-1.1-2-2.3-4-3.5-5.9c-0.1-0.1-0.1-0.2-0.2-0.3c-1-1.6-2-3.1-3-4.6l-29.5,23.2c0.4,0.5,0.7,1.1,1,1.6c0.6,1,1.3,2.1,1.9,3.1
		c0.3,0.6,0.7,1.2,1,1.7c0.6,1,1.1,2.1,1.7,3.2c0.3,0.6,0.6,1.2,0.9,1.8c0.5,1.1,1,2.1,1.5,3.2c0.3,0.6,0.6,1.3,0.9,1.9
		c0.5,1.1,0.9,2.2,1.3,3.3c0.3,0.7,0.5,1.3,0.8,2c0.4,1.1,0.8,2.2,1.2,3.3c0.2,0.7,0.5,1.4,0.7,2.1c0.3,1.1,0.7,2.2,1,3.3
		c0.2,0.7,0.4,1.4,0.6,2.2c0.3,1.1,0.6,2.3,0.8,3.4c0.2,0.7,0.4,1.5,0.5,2.2c0.2,1.1,0.4,2.3,0.6,3.5c0.1,0.8,0.3,1.5,0.4,2.3
		c0.2,1.2,0.3,2.4,0.5,3.6c0.1,0.7,0.2,1.5,0.3,2.2c0.1,1.3,0.2,2.6,0.3,4c0,0.6,0.1,1.3,0.1,1.9c0.1,2,0.2,4,0.2,6
		c0,2-0.1,3.9-0.1,5.8c0,0.9-0.1,1.7-0.2,2.6c-0.1,1.1-0.1,2.1-0.2,3.2c-0.1,1.1-0.3,2.2-0.4,3.3c-0.1,0.8-0.2,1.6-0.3,2.3
		c-0.2,1.2-0.4,2.4-0.6,3.6c-0.1,0.6-0.2,1.3-0.3,1.9c-0.3,1.2-0.6,2.5-0.8,3.7c-0.1,0.6-0.3,1.2-0.4,1.8c-0.3,1.2-0.7,2.4-1,3.6
		c-0.2,0.6-0.3,1.2-0.5,1.8c-0.3,1.1-0.7,2.2-1.1,3.4c-0.2,0.6-0.4,1.3-0.7,1.9c-0.4,1-0.8,2-1.2,3c-5.6,14-13.8,26.7-24.2,37.4
		c-1.1,1.1-2.2,2.3-3.3,3.3c0,0,0,0,0,0c-1.3,1.3-2.7,2.5-4.1,3.8c0,0-0.1,0.1-0.1,0.1c-1.4,1.2-2.8,2.4-4.2,3.5
		c-0.1,0-0.1,0.1-0.2,0.1c-1.4,1.1-2.8,2.2-4.3,3.2c-0.1,0.1-0.2,0.1-0.3,0.2c-1.2,0.8-2.4,1.6-3.6,2.4c-0.5,0.3-1.1,0.7-1.6,1
		c-1,0.6-2.1,1.3-3.2,1.9c-0.6,0.3-1.1,0.7-1.7,1c-1.1,0.6-2.1,1.2-3.2,1.7c-0.6,0.3-1.2,0.6-1.8,0.9c-1.1,0.5-2.2,1-3.3,1.5
		c-0.6,0.3-1.2,0.6-1.9,0.8c-1.1,0.5-2.2,0.9-3.3,1.4c-0.7,0.3-1.3,0.5-2,0.8c-0.9,0.3-1.8,0.6-2.7,0.9c-0.2,0.1-0.4,0.2-0.6,0.2
		c-0.7,0.2-1.4,0.5-2.1,0.7c-1.1,0.4-2.2,0.7-3.3,1c-0.7,0.2-1.4,0.4-2.2,0.6c-1.1,0.3-2.3,0.6-3.4,0.8c-0.7,0.2-1.5,0.4-2.2,0.5
		c-1.2,0.2-2.4,0.4-3.5,0.7c-0.7,0.1-1.5,0.3-2.2,0.4c-0.1,0-0.1,0-0.2,0c-1.1,0.2-2.3,0.3-3.4,0.5c-0.7,0.1-1.5,0.2-2.2,0.3
		c-1.4,0.1-2.7,0.2-4.1,0.3c-0.6,0-1.2,0.1-1.8,0.1c-2,0.1-4,0.2-6,0.2c0,0,0,0-0.1,0c-1.3,0-2.6-0.1-3.9-0.1c-0.6,0-1.2,0-1.8,0
		c-0.5,0-1-0.1-1.6-0.1c-0.3,0-0.7-0.1-1-0.1c-1.1-0.1-2.1-0.1-3.2-0.2c-1.2-0.1-2.3-0.3-3.5-0.4c-0.7-0.1-1.4-0.2-2.2-0.3
		c-0.1,0-0.2,0-0.3-0.1c-1.2-0.2-2.5-0.4-3.7-0.7c-0.5-0.1-1.1-0.2-1.6-0.3c-1.3-0.3-2.5-0.6-3.7-0.9c-0.6-0.1-1.2-0.3-1.8-0.4
		c-0.2,0-0.4-0.1-0.5-0.2c-1.1-0.3-2.1-0.6-3.2-0.9c-0.5-0.2-1.1-0.3-1.6-0.5c-1.2-0.4-2.3-0.8-3.5-1.2c-0.6-0.2-1.2-0.4-1.8-0.6
		c-1-0.4-2-0.8-3.1-1.2c-1.7-0.7-3.4-1.4-5.1-2.2c0,0-0.1,0-0.1,0c-12-5.5-22.8-12.9-32.2-21.9c-0.9-0.9-1.8-1.8-2.7-2.7
		c-0.2-0.2-0.3-0.4-0.5-0.5l-29.4,23.3c5.9,6.5,12.4,12.5,19.3,17.8c0.1,0.1,0.3,0.2,0.4,0.3c0.9,0.7,1.9,1.4,2.9,2.1
		c0.5,0.3,0.9,0.7,1.4,1c0.9,0.6,1.7,1.2,2.6,1.8c0.6,0.4,1.2,0.8,1.8,1.2c0.8,0.5,1.6,1,2.4,1.6c0.7,0.4,1.4,0.9,2.1,1.3
		c0.8,0.5,1.5,0.9,2.3,1.4c0.8,0.5,1.6,0.9,2.3,1.3c0.7,0.4,1.4,0.8,2.2,1.2c0.9,0.5,1.7,0.9,2.6,1.4c0.7,0.3,1.3,0.7,2,1
		c1,0.5,2,1,3,1.5c0.6,0.3,1.1,0.5,1.7,0.8c1.6,0.7,3.1,1.4,4.7,2.1c0,0,0.1,0,0.1,0v0c0.1,0,0.1,0,0.2,0.1c0.6,0.3,1.2,0.5,1.9,0.7
		c1.1,0.4,2.1,0.8,3.2,1.2c0.8,0.3,1.6,0.6,2.3,0.8c0.9,0.3,1.8,0.7,2.8,1c3.4,1.1,6.9,2.2,10.5,3.1c0.1,0,0.1,0,0.2,0
		c1.3,0.3,2.6,0.6,3.9,0.9c1,0.2,2.1,0.5,3.1,0.7c0.3,0.1,0.5,0.1,0.8,0.1c2.2,0.4,4.3,0.8,6.6,1.2c0.2,0,0.5,0.1,0.7,0.1
		c0.4,0,0.7,0.1,1.1,0.1c0.2,0,0.4,0.1,0.6,0.1c0.8,0.1,1.6,0.2,2.4,0.3c0.9,0.1,1.8,0.2,2.6,0.3c1.1,0.1,2.2,0.2,3.4,0.3
		c0.7,0.1,1.4,0.1,2.1,0.2c0.7,0.1,1.4,0.1,2.1,0.1c2.6,0.1,5.1,0.2,7.7,0.2c1.3,0,2.7,0,4-0.1c1.3,0,2.6-0.1,3.9-0.1
		c0.8,0,1.5-0.1,2.3-0.2c0.4,0,0.8-0.1,1.2-0.1c0.5,0,1-0.1,1.5-0.1c0.9-0.1,1.8-0.1,2.8-0.2c0.8-0.1,1.6-0.2,2.5-0.3
		c0.4,0,0.7-0.1,1.1-0.1c1.4-0.2,2.8-0.3,4.1-0.6c0.3,0,0.5-0.1,0.8-0.1c0.5-0.1,1-0.2,1.6-0.3c1.8-0.3,3.5-0.6,5.2-1
		c0,0,0.1,0,0.1,0c0.7-0.1,1.4-0.3,2.1-0.5c1.5-0.3,3.1-0.7,4.6-1.1c0.2-0.1,0.5-0.1,0.7-0.2c0.2,0,0.3-0.1,0.5-0.1
		c0.5-0.1,0.9-0.3,1.4-0.4c0.9-0.2,1.8-0.5,2.7-0.7c0,0,0.1,0,0.1,0c0.4-0.1,0.7-0.2,1.1-0.3c0.5-0.2,1.1-0.3,1.6-0.5
		c0.5-0.2,1-0.4,1.6-0.5c1-0.3,2-0.7,3.1-1c0.9-0.3,1.7-0.6,2.6-0.9c0.4-0.2,0.9-0.3,1.3-0.5c1.9-0.7,3.8-1.5,5.7-2.3
		c0.3-0.2,0.7-0.3,1-0.5c2-0.9,3.9-1.8,5.8-2.7c0.1,0,0.2-0.1,0.3-0.1c0.2-0.1,0.3-0.2,0.5-0.2c0.6-0.3,1.3-0.7,1.9-1
		c1.4-0.7,2.7-1.4,4-2.1c0.2-0.1,0.4-0.2,0.6-0.3c2-1.1,4-2.3,5.9-3.5c0,0,0.1,0,0.1-0.1c0.1-0.1,0.2-0.1,0.2-0.2
		c0.3-0.2,0.7-0.4,1-0.7c1.2-0.8,2.4-1.6,3.6-2.4c0.5-0.3,0.9-0.6,1.4-0.9c0.1,0,0.1-0.1,0.2-0.1c2-1.4,4-2.8,5.9-4.3c0,0,0,0,0,0
		c20.8-16.1,37.3-37.3,47.5-61.9c0-0.1,0-0.1,0.1-0.2c2.8-6.7,5.1-13.5,6.9-20.6c0-0.1,0-0.1,0-0.2c0.6-2.3,1.1-4.6,1.6-7
		c0.1-0.3,0.1-0.5,0.1-0.8c0.4-2.2,0.8-4.3,1.2-6.5c0.1-0.6,0.1-1.2,0.2-1.8c0.3-1.9,0.5-3.8,0.7-5.7c0.1-1.1,0.2-2.2,0.3-3.4
		c0.1-1.4,0.2-2.8,0.3-4.2c0.1-2.6,0.2-5.1,0.2-7.7c0-2.6-0.1-5.3-0.2-7.9C668.7,304.5,668.6,303.8,668.5,303z"/>
	<path class="st1" d="M413.2,360.3c-0.3-0.6-0.6-1.3-0.9-1.9c-0.5-1.1-0.9-2.2-1.3-3.3c-0.3-0.7-0.5-1.3-0.8-2
		c-0.4-1.1-0.8-2.2-1.2-3.3c-0.2-0.7-0.5-1.4-0.7-2.1c-0.4-1.1-0.7-2.2-1-3.4c-0.2-0.7-0.4-1.4-0.6-2.2c-0.3-1.1-0.6-2.3-0.8-3.4
		c-0.2-0.7-0.4-1.5-0.5-2.2c-0.2-1.2-0.4-2.3-0.6-3.5c-0.1-0.7-0.3-1.5-0.4-2.2c-0.2-1.2-0.3-2.4-0.5-3.6c-0.1-0.7-0.2-1.5-0.3-2.2
		c-0.1-1.3-0.2-2.7-0.3-4c0-0.6-0.1-1.3-0.1-1.9c0-0.1,0-0.2,0-0.4c-0.1-1.9-0.1-3.7-0.1-5.6c0,0,0,0,0-0.1c0-1.3,0.1-2.5,0.1-3.7
		c0-0.7,0-1.4,0.1-2c0.1-1,0.2-2.1,0.2-3.1c0.1-0.9,0.1-1.8,0.2-2.7c0.1-1.3,0.3-2.5,0.5-3.7c0.1-0.6,0.1-1.3,0.2-1.9
		c0.2-1.3,0.5-2.6,0.7-4c0.1-0.5,0.2-1.1,0.3-1.6c0.3-1.3,0.6-2.5,0.9-3.7c0.1-0.6,0.3-1.2,0.4-1.7c0.3-1.2,0.7-2.5,1-3.7
		c0.2-0.6,0.3-1.1,0.5-1.7c0.4-1.2,0.8-2.3,1.1-3.4c0.2-0.6,0.4-1.2,0.6-1.8c0.4-1,0.8-2.1,1.2-3.1c0.7-1.7,1.4-3.4,2.1-5
		c0-0.1,0.1-0.1,0.1-0.2c2.3-5.1,5-10,8-14.7l0,0c4.4-6.8,9.5-13.2,15.2-18.9l0,0c2.8-2.8,5.7-5.4,8.8-7.9l0,0
		c9-7.3,19-13.3,29.9-17.6c0.8-0.3,1.5-0.6,2.3-0.9c1-0.4,1.9-0.7,2.9-1c0.8-0.3,1.7-0.6,2.5-0.8c0.9-0.3,1.9-0.6,2.9-0.8
		c0.9-0.3,1.8-0.5,2.6-0.7c1-0.2,1.9-0.5,2.9-0.7c0.9-0.2,1.8-0.4,2.7-0.6c1-0.2,2-0.4,3-0.6c0.9-0.2,1.8-0.3,2.7-0.5
		c1.1-0.2,2.2-0.3,3.3-0.4c0.8-0.1,1.7-0.2,2.5-0.3c1.2-0.1,2.5-0.2,3.7-0.3c0.7,0,1.4-0.1,2.1-0.2c0.1,0,0.2,0,0.4,0
		c1.8-0.1,3.7-0.1,5.6-0.1c1.9,0,3.8,0.1,5.6,0.1c0.8,0,1.6,0.1,2.4,0.2c0.1,0,0.1,0,0.2,0c0.2,0,0.3,0,0.5,0
		c0.8,0.1,1.6,0.1,2.4,0.2c1,0.1,2.1,0.2,3.1,0.4c0.2,0,0.4,0.1,0.6,0.1c0.6,0.1,1.1,0.1,1.7,0.2c1.2,0.2,2.3,0.4,3.5,0.6
		c0.3,0.1,0.6,0.1,0.8,0.1c0.3,0.1,0.6,0.1,0.9,0.2c1.3,0.2,2.5,0.5,3.8,0.8c0.3,0.1,0.6,0.1,0.9,0.2c0.2,0,0.3,0.1,0.5,0.1
		c1.3,0.3,2.7,0.7,4,1.1c0.3,0.1,0.6,0.2,0.9,0.3c0.1,0,0.1,0,0.1,0c1.4,0.4,2.8,0.8,4.1,1.3c0.3,0.1,0.6,0.2,0.9,0.3
		c1.4,0.5,2.8,1,4.2,1.5c0.3,0.1,0.5,0.2,0.8,0.3c0,0,0,0,0,0c1.6,0.6,3.2,1.3,4.8,2c0.3,0.2,0.7,0.3,1,0.5c1.3,0.6,2.5,1.2,3.7,1.8
		c0.4,0.2,0.8,0.4,1.2,0.6c1.3,0.7,2.5,1.3,3.7,2c0.3,0.2,0.6,0.3,0.9,0.5c1.4,0.8,2.8,1.7,4.2,2.6c3.6,2.3,7.1,4.9,10.4,7.6
		l29.9-23.5c-5.3-4.8-10.9-9.2-16.8-13.2c-1.2-0.8-2.5-1.6-3.7-2.4c-0.7-0.5-1.4-0.9-2.2-1.4c-1.4-0.9-2.8-1.7-4.2-2.5
		c-0.5-0.3-0.9-0.5-1.4-0.8c-5-2.8-10.1-5.3-15.4-7.5l0,0c-0.6-0.3-1.3-0.5-1.9-0.7c-0.1,0-0.2-0.1-0.4-0.2c0,0,0,0,0,0
		c-0.3-0.1-0.5-0.2-0.8-0.3c-1.2-0.5-2.4-0.9-3.6-1.4c-0.6-0.2-1.3-0.4-1.9-0.6c0,0,0,0,0,0c-0.1,0-0.2-0.1-0.3-0.1c0,0-0.1,0-0.1,0
		c-0.1,0-0.2-0.1-0.3-0.1c-1.5-0.5-2.9-1-4.4-1.5c-0.5-0.2-1.1-0.3-1.6-0.5c-0.1,0-0.1,0-0.2-0.1c-0.1,0-0.3-0.1-0.4-0.1
		c-0.1,0-0.1,0-0.2,0c-1.6-0.5-3.2-0.9-4.8-1.3c-0.4-0.1-0.9-0.2-1.3-0.3c0,0-0.1,0-0.1,0c-0.3-0.1-0.6-0.1-0.9-0.2c0,0,0,0,0,0
		c-1.6-0.4-3.3-0.8-4.9-1.1c-0.3-0.1-0.6-0.1-0.9-0.2c0,0-0.1,0-0.1,0c-0.5-0.1-1-0.2-1.4-0.3c-1.6-0.3-3.3-0.6-4.9-0.9
		c-0.2,0-0.4-0.1-0.7-0.1c0,0,0,0,0,0c-0.7-0.1-1.5-0.2-2.2-0.3c-1.5-0.2-3-0.4-4.6-0.6c-1.3-0.1-2.6-0.2-3.9-0.3
		c-1.2-0.1-2.4-0.2-3.7-0.3c-2.6-0.1-5.1-0.2-7.7-0.2c-1.7,0-3.4,0-5.1,0.1c-0.5,0-1.1,0-1.6,0.1c-0.4,0-0.7,0-1.1,0
		c-0.4,0-0.8,0.1-1.1,0.1c-1.7,0.1-3.3,0.2-5,0.4c-0.5,0-1.1,0.1-1.6,0.1c-0.2,0-0.4,0.1-0.6,0.1c-4.8,0.5-9.6,1.3-14.3,2.2
		c0,0-0.1,0-0.1,0c-0.1,0-0.1,0-0.2,0c-9.4,1.9-18.4,4.7-27,8.3c-0.1,0-0.2,0.1-0.3,0.1l0,0c-34.5,14.4-62.5,41.1-78.6,74.6
		c-0.1,0.2-0.2,0.3-0.3,0.5c-0.5,1-0.9,2-1.4,3c-0.3,0.6-0.5,1.1-0.8,1.7c-0.3,0.7-0.6,1.4-0.9,2.1c0,0,0,0.1-0.1,0.2
		c-0.8,2-1.6,3.9-2.3,5.9c-0.1,0.2-0.1,0.3-0.2,0.5c-0.2,0.4-0.3,0.8-0.4,1.3c-0.4,1.2-0.9,2.5-1.3,3.7c-0.2,0.7-0.4,1.3-0.7,2
		c-0.1,0.2-0.1,0.5-0.2,0.7c-0.3,1-0.6,2.1-0.9,3.2c-0.3,1-0.6,2-0.8,3c0,0.1-0.1,0.2-0.1,0.3c0,0.1,0,0.1,0,0.2
		c-0.6,2.3-1.1,4.7-1.6,7c-0.1,0.3-0.1,0.5-0.1,0.8c-0.4,2.2-0.8,4.4-1.2,6.6c-0.1,0.6-0.1,1.2-0.2,1.7c-0.3,1.9-0.5,3.7-0.7,5.6
		c0,0,0,0.1,0,0.1c0,0,0,0,0,0c0,0,0,0,0,0c0,0.1,0,0.3,0,0.4c-0.1,1.1-0.2,2.1-0.2,3.2c-0.1,1.2-0.2,2.4-0.3,3.5c0,0.1,0,0.3,0,0.4
		c-0.1,2.6-0.2,5.1-0.2,7.7c0,1.7,0,3.4,0.1,5.1c0,0.5,0,1,0.1,1.5c0,0.4,0,0.8,0,1.2s0.1,0.8,0.1,1.2c0.1,1.5,0.2,2.9,0.3,4.4
		c0.1,0.7,0.1,1.5,0.2,2.2c0,0.2,0.1,0.4,0.1,0.6c0.2,1.5,0.3,3,0.5,4.4c0,0.1,0,0.2,0,0.3c0.4,3.1,1,6.2,1.6,9.2
		c0.1,0.3,0.1,0.5,0.2,0.8c0.1,0.3,0.1,0.6,0.2,0.8c0.4,1.8,0.8,3.6,1.2,5.3c0.1,0.4,0.2,0.9,0.3,1.3c0,0.1,0,0.1,0.1,0.2
		c1.2,4.7,2.7,9.3,4.4,13.8c0.1,0.2,0.1,0.3,0.2,0.5c0.1,0.1,0.1,0.3,0.2,0.4c2.6,6.8,5.7,13.4,9.2,19.8l29.8-23.6
		C414,361.9,413.6,361.1,413.2,360.3z"/>
	<path class="st1" d="M265.9,50.2v107v156c0,63-51.3,114.3-114.3,114.3c-63,0-114.3-51.3-114.3-114.3c0-63,51.3-114.3,114.3-114.3
		h76.9v-37.4h-76.9C68,161.5,0,229.6,0,313.2c0,83.6,68,151.6,151.6,151.6c83.6,0,151.6-68,151.6-151.6v-156v-107V29.4V0l-37.4,29.4
		V50.2z"/>
	<polygon class="st0" points="756.1,138.1 756.1,144.4 756.1,218.9 756.1,225.2 756.1,228.8 756.1,235 756.1,458.6 756.1,464.8 
		793.5,464.8 793.5,458.6 793.5,235 793.5,228.8 793.5,225.2 793.5,218.9 793.5,115.3 793.5,109.1 	"/>
	<circle class="st1" cx="774.8" cy="56.9" r="26.5"/>
</g>
<g>
	<path class="st2" d="M11.6,671.3l4.3-8.7c4.9,4.1,9.8,7.1,14.9,8.8c5,1.7,10.9,2.6,17.6,2.6c7.9,0,14-1.5,18.2-4.6
		c4.3-3.1,6.4-7.4,6.4-13c0-3.3-1-6-3.1-8.1c-2.1-2.1-4.8-3.7-8.1-4.9c-3.4-1.2-7.8-2.4-13.4-3.7c-7.5-1.7-13.7-3.4-18.6-5.4
		c-4.9-1.9-8.8-4.7-11.8-8.3c-3-3.6-4.5-8.4-4.5-14.3c0-5.6,1.5-10.5,4.4-14.8c2.9-4.3,7.1-7.6,12.5-10c5.4-2.4,11.6-3.6,18.8-3.6
		c6.8,0,13.1,1.1,19,3.2c5.9,2.1,10.8,5.2,14.9,9.2l-4.4,8.7c-4.6-3.9-9.3-6.8-14-8.7c-4.7-1.8-9.9-2.8-15.5-2.8
		c-7.6,0-13.6,1.6-17.9,4.9c-4.3,3.3-6.5,7.7-6.5,13.4c0,5,1.9,8.7,5.6,11.2c3.8,2.5,9.5,4.6,17.4,6.5c8.4,2,15.1,3.9,19.9,5.6
		c4.8,1.7,8.8,4.3,12,7.7c3.2,3.4,4.8,8,4.8,13.7c0,5.5-1.5,10.4-4.4,14.5c-2.9,4.2-7.1,7.4-12.6,9.7c-5.5,2.3-11.9,3.4-19.2,3.4
		C32.9,683.7,20.7,679.5,11.6,671.3z"/>
	<path class="st2" d="M237.9,584.5l-38.6,58.4v39.7H188v-39.8l-38.6-58.3h13.2l31.1,48.2l31.1-48.2H237.9z"/>
	<path class="st2" d="M302.2,671.3l4.3-8.7c4.9,4.1,9.8,7.1,14.9,8.8c5,1.7,10.9,2.6,17.6,2.6c7.9,0,14-1.5,18.2-4.6
		c4.3-3.1,6.4-7.4,6.4-13c0-3.3-1-6-3.1-8.1c-2.1-2.1-4.8-3.7-8.1-4.9c-3.4-1.2-7.8-2.4-13.4-3.7c-7.5-1.7-13.7-3.4-18.6-5.4
		c-4.9-1.9-8.8-4.7-11.8-8.3c-3-3.6-4.5-8.4-4.5-14.3c0-5.6,1.5-10.5,4.4-14.8c2.9-4.3,7.1-7.6,12.5-10c5.4-2.4,11.6-3.6,18.8-3.6
		c6.8,0,13.1,1.1,19,3.2c5.9,2.1,10.8,5.2,14.9,9.2l-4.4,8.7c-4.6-3.9-9.3-6.8-14-8.7c-4.7-1.8-9.9-2.8-15.5-2.8
		c-7.6,0-13.6,1.6-17.9,4.9c-4.3,3.3-6.5,7.7-6.5,13.4c0,5,1.9,8.7,5.6,11.2c3.8,2.5,9.5,4.6,17.4,6.5c8.4,2,15.1,3.9,19.9,5.6
		c4.8,1.7,8.8,4.3,12,7.7c3.2,3.4,4.8,8,4.8,13.7c0,5.5-1.5,10.4-4.4,14.5c-2.9,4.2-7.1,7.4-12.6,9.7c-5.5,2.3-11.9,3.4-19.2,3.4
		C323.5,683.7,311.3,679.5,302.2,671.3z"/>
	<path class="st2" d="M478.4,682.6v-88.4h-34.2v-9.6H524v9.6h-34.2v88.4H478.4z"/>
	<path class="st2" d="M601.1,682.6v-98.1h62v9.4h-50.8V628h48.1v9.5h-48.1v35.7h50.8v9.4H601.1z"/>
	<path class="st2" d="M828.8,584.5h9.4v98.1h-10.5v-72.9l-31.8,72.9h-8l-32.1-72.3l0.1,72.3h-10.5v-98.1h9.4l37.2,84.6L828.8,584.5z
		"/>
	<path class="st2" d="M920.2,671.3l4.3-8.7c4.9,4.1,9.8,7.1,14.9,8.8c5,1.7,10.9,2.6,17.6,2.6c7.9,0,14-1.5,18.2-4.6
		c4.3-3.1,6.4-7.4,6.4-13c0-3.3-1-6-3.1-8.1c-2.1-2.1-4.8-3.7-8.1-4.9c-3.4-1.2-7.8-2.4-13.4-3.7c-7.5-1.7-13.7-3.4-18.6-5.4
		c-4.9-1.9-8.8-4.7-11.8-8.3c-3-3.6-4.5-8.4-4.5-14.3c0-5.6,1.5-10.5,4.4-14.8c2.9-4.3,7.1-7.6,12.5-10c5.4-2.4,11.6-3.6,18.8-3.6
		c6.8,0,13.1,1.1,19,3.2c5.9,2.1,10.8,5.2,14.9,9.2l-4.4,8.7c-4.6-3.9-9.3-6.8-14-8.7c-4.7-1.8-9.9-2.8-15.5-2.8
		c-7.6,0-13.6,1.6-17.9,4.9c-4.3,3.3-6.5,7.7-6.5,13.4c0,5,1.9,8.7,5.6,11.2c3.8,2.5,9.5,4.6,17.4,6.5c8.4,2,15.1,3.9,19.9,5.6
		c4.8,1.7,8.8,4.3,12.1,7.7c3.2,3.4,4.8,8,4.8,13.7c0,5.5-1.5,10.4-4.4,14.5c-2.9,4.2-7.1,7.4-12.6,9.7c-5.5,2.3-11.9,3.4-19.2,3.4
		C941.5,683.7,929.3,679.5,920.2,671.3z"/>
</g>
</svg>
